<?xml version="1.0"?>
<svg xmlns="http://www.w3.org/2000/svg" xmlns:xlink="http://www.w3.org/1999/xlink" xmlns:svgjs="http://svgjs.com/svgjs" version="1.1" width="512" height="512" x="0" y="0" viewBox="0 0 512 512" style="enable-background:new 0 0 512 512" xml:space="preserve" class=""><g>
<g xmlns="http://www.w3.org/2000/svg">
	<g>
		<path d="M490.579,273.114c-3.948-6.272-8.295-12.056-12.967-17.298c0.992-5.616,1.512-11.393,1.512-17.29    c0-54.654-44.464-99.119-99.118-99.119c-12.171,0-23.834,2.21-34.616,6.242c-12.215-21.504-29.444-39.79-50.359-53.299    c-24.797-16.017-53.572-24.483-83.214-24.483c-84.682,0-153.575,68.894-153.575,153.575c0,4.347,0.186,8.714,0.555,13.064    C22.734,253.759,0,291.165,0,332.733c0,61.426,49.974,111.4,111.4,111.4h289.2c30.125,0,57.731-9.121,77.731-25.681    C500.358,400.214,512,374.723,512,344.734C512,320.495,504.393,295.06,490.579,273.114z M380.006,169.407    c38.112,0.001,69.118,31.007,69.118,69.119s-31.006,69.118-69.118,69.118s-69.119-31.006-69.119-69.118    C310.887,200.414,341.893,169.407,380.006,169.407z M400.6,414.133H111.4c-44.884,0-81.4-36.516-81.4-81.4    c0-33.235,19.885-62.828,50.659-75.392c6.454-2.635,10.242-9.369,9.143-16.253c-1.035-6.48-1.56-13.091-1.56-19.646    c0-68.14,55.436-123.575,123.575-123.575c44.38,0,85.559,24.224,107.394,62.431c-23.305,18.152-38.323,46.468-38.323,78.229    c0,54.654,44.464,99.118,99.119,99.118c36.181,0,67.89-19.49,85.196-48.518C475.522,305.433,482,325.345,482,344.734    C482,392.674,441.117,414.133,400.6,414.133z" fill="#ffffff" data-original="#000000" style="" class=""/>
	</g>
</g>
<g xmlns="http://www.w3.org/2000/svg">
	<g>
		<path d="M401.218,238.526l14.598-14.598c5.858-5.858,5.858-15.355,0-21.213c-5.857-5.858-15.355-5.858-21.213,0l-14.598,14.598    l-14.598-14.598c-5.858-5.858-15.355-5.858-21.213,0c-5.858,5.857-5.858,15.355,0,21.213l14.598,14.598l-14.598,14.598    c-5.858,5.858-5.858,15.355,0,21.213c2.929,2.929,6.768,4.394,10.606,4.394c3.838,0,7.678-1.464,10.606-4.394l14.598-14.598    l14.598,14.598c2.929,2.929,6.767,4.394,10.606,4.394c3.838,0,7.678-1.465,10.606-4.394c5.858-5.857,5.858-15.355,0-21.213    L401.218,238.526z" fill="#ffffff" data-original="#000000" style="" class=""/>
	</g>
</g>
<g xmlns="http://www.w3.org/2000/svg">
</g>
<g xmlns="http://www.w3.org/2000/svg">
</g>
<g xmlns="http://www.w3.org/2000/svg">
</g>
<g xmlns="http://www.w3.org/2000/svg">
</g>
<g xmlns="http://www.w3.org/2000/svg">
</g>
<g xmlns="http://www.w3.org/2000/svg">
</g>
<g xmlns="http://www.w3.org/2000/svg">
</g>
<g xmlns="http://www.w3.org/2000/svg">
</g>
<g xmlns="http://www.w3.org/2000/svg">
</g>
<g xmlns="http://www.w3.org/2000/svg">
</g>
<g xmlns="http://www.w3.org/2000/svg">
</g>
<g xmlns="http://www.w3.org/2000/svg">
</g>
<g xmlns="http://www.w3.org/2000/svg">
</g>
<g xmlns="http://www.w3.org/2000/svg">
</g>
<g xmlns="http://www.w3.org/2000/svg">
</g>
</g></svg>
